<svg width="18" height="18" viewBox="0 0 18 18" fill="none" xmlns="http://www.w3.org/2000/svg">
<path fill-rule="evenodd" clip-rule="evenodd" d="M0.833344 5.50001C0.833344 2.92268 2.92268 0.833344 5.50001 0.833344H12.5C15.0773 0.833344 17.1667 2.92268 17.1667 5.50001V12.5C17.1667 15.0773 15.0773 17.1667 12.5 17.1667H5.50001C2.92268 17.1667 0.833344 15.0773 0.833344 12.5V5.50001Z" stroke="#141414" stroke-width="1.5" stroke-linecap="round" stroke-linejoin="round"/>
<path d="M13.6667 6.25C14.0809 6.25 14.4167 5.91421 14.4167 5.5C14.4167 5.08579 14.0809 4.75 13.6667 4.75V6.25ZM4.33334 4.75C3.91913 4.75 3.58334 5.08579 3.58334 5.5C3.58334 5.91421 3.91913 6.25 4.33334 6.25V4.75ZM12.5 9.75C12.9142 9.75 13.25 9.41421 13.25 9C13.25 8.58579 12.9142 8.25 12.5 8.25V9.75ZM5.50001 8.25C5.0858 8.25 4.75001 8.58579 4.75001 9C4.75001 9.41421 5.0858 9.75 5.50001 9.75V8.25ZM11.3333 13.25C11.7476 13.25 12.0833 12.9142 12.0833 12.5C12.0833 12.0858 11.7476 11.75 11.3333 11.75V13.25ZM6.66668 11.75C6.25246 11.75 5.91668 12.0858 5.91668 12.5C5.91668 12.9142 6.25246 13.25 6.66668 13.25V11.75ZM13.6667 4.75H4.33334V6.25H13.6667V4.75ZM12.5 8.25H5.50001V9.75H12.5V8.25ZM11.3333 11.75H6.66668V13.25H11.3333V11.75Z" fill="#141414"/>
</svg>
