<svg width="256" height="249" viewBox="0 0 256 249" fill="none" xmlns="http://www.w3.org/2000/svg">
<path d="M133.492 0.938465C132.717 1.19693 131.748 1.97231 131.231 2.55385C130.326 3.65231 130.391 3.71693 132.2 3.26462C136.206 2.36 139.631 2.10154 141.828 2.48923C144.994 3.07077 148.354 6.43077 149.323 9.98462C150.422 13.7969 150.292 24.0062 149.065 33.2462C147.837 42.3569 147.772 45.3938 148.742 44.4246C149.905 43.2615 151.972 27.6892 151.972 19.3538C152.037 8.43385 150.422 4.49231 144.671 1.52C142.151 0.227695 135.948 -0.0953827 133.492 0.938465Z" fill="#141414"/>
<path d="M124.898 7.4C113.785 9.01539 101.249 21.2277 93.3661 38.0277C91.88 41.2585 90.3292 45.0708 89.9415 46.4923C89.36 48.8185 88.7784 49.3354 85.0307 51.2738C78.6338 54.5692 75.7261 59.0923 75.6615 66.0708C75.6615 72.2739 78.8277 76.3446 87.4861 80.9969C91.1046 82.9354 93.1077 83.6462 94.5938 83.5169C96.6615 83.2585 96.5969 83.2585 93.043 81.6431C88.9723 79.7046 86.84 77.4431 86.2584 74.2769C85.3538 69.3015 87.7446 65.9415 92.3323 65.9415C94.1415 65.9415 94.9815 66.3939 96.5969 68.3323C100.345 72.7908 103.058 70.9169 102.671 64.1969C102.542 60.9662 102.671 60.3846 103.446 60.6431C103.963 60.7723 107.388 62.0646 111.071 63.4215C117.209 65.8123 117.532 66.0708 116.046 66.7169C114.431 67.4277 113.914 69.0431 115.012 69.6892C115.335 69.8831 118.76 69.8185 122.637 69.4954C126.514 69.1723 132.394 69.1077 135.689 69.3015C141.375 69.6246 141.634 69.6892 141.311 70.9815C138.532 80.5446 137.822 89.8492 139.76 91.7877C140.729 92.7569 140.794 92.4339 140.729 86.8123C140.729 77.7015 143.378 69.4308 146.351 69.4308C147.255 69.4308 148.031 69.6892 148.16 70.0123C148.418 70.7877 161.665 71.1754 162.828 70.4646C163.409 70.0769 163.409 69.6892 162.569 68.7846C161.6 67.7508 161.729 67.6215 164.572 66.9108C166.188 66.4585 167.674 66.2646 167.868 66.3939C168.32 66.9108 164.831 83.1292 163.151 88.04C157.852 103.935 148.935 112.658 136.917 113.822C126.062 114.791 112.557 106.649 105.514 94.76C102.542 89.7846 101.508 88.6862 101.508 90.6246C101.508 93.4031 105.708 100.188 110.231 104.646C122.637 116.923 138.468 119.378 151.068 110.978C156.948 107.102 162.182 99.2831 165.412 89.3969C166.64 85.6492 167.092 85.0677 169.225 84.0985C173.102 82.3539 178.723 77.5723 180.015 74.8585C182.6 69.56 181.76 60.5139 178.465 57.5415C177.56 56.7015 177.366 55.7969 177.625 53.6C178.012 50.1754 177.366 47.9139 176.462 49.4C176.074 49.9169 175.815 51.2092 175.815 52.2431C175.815 56.7662 164.895 63.6154 153.458 66.2646C148.354 67.4277 146.092 67.6215 138.532 67.3631C129.034 67.04 127.16 66.6523 115.917 63.1631C108.422 60.8369 90.523 52.5662 90.523 51.4031C90.523 50.0462 94.0123 41.0646 96.5323 36.1539C103.769 21.6154 114.302 11.6 124.511 9.4677C126.32 9.08 128.452 8.95078 129.357 9.14462C131.683 9.72616 134.203 12.3108 135.883 16.0585C137.305 19.2246 137.369 19.9354 137.175 32.9231C137.046 47.5908 137.628 49.3354 139.437 39.6431C140.729 32.6 140.923 18.9015 139.695 15.6062C138.338 11.6646 135.431 8.82154 131.683 7.72308C129.874 7.20615 128.388 6.81847 128.388 6.81847C128.323 6.88308 126.772 7.14154 124.898 7.4Z" fill="#141414"/>
<path d="M79.5385 11.8585C79.5385 12.8277 85.2246 18.7077 85.6769 18.2554C86.3231 17.6092 81.6061 11.2769 80.4431 11.2769C79.9261 11.2769 79.5385 11.5354 79.5385 11.8585Z" fill="#141414"/>
<path d="M153.523 14.5077C153.135 15.0892 155.655 16.4462 157.077 16.4462C158.498 16.4462 162.505 20.84 164.314 24.4585C165.477 26.6554 167.674 32.7938 169.354 38.0923L172.326 47.7846L168.708 50.1754C160.695 55.5385 154.04 57.6062 142.926 58.1877C136.206 58.5754 134.655 58.3815 128 56.8308C123.929 55.9262 119.406 54.9569 117.985 54.8277L115.4 54.5046L117.209 55.5385C118.243 56.12 122.314 57.3477 126.255 58.3169C135.431 60.4492 149.582 60.7077 156.431 58.8985C162.052 57.4123 169.225 53.8585 172.52 50.8862C175.234 48.4308 175.234 48.4308 174.265 46.4923C173.748 45.3938 172.391 41.1938 171.292 37.1231C169.095 28.9815 166.705 23.4246 163.603 19.2246C160.76 15.2831 154.751 12.5046 153.523 14.5077Z" fill="#141414"/>
<path d="M199.529 17.2862C195.782 20.7108 194.942 22.2616 197.009 22.2616C198.495 22.1969 205.797 15.4123 205.215 14.5723C204.44 13.28 203.342 13.8616 199.529 17.2862Z" fill="#141414"/>
<path d="M58.8615 19.0308C58.0215 19.6123 58.0861 19.8708 59.1846 20.7108C61.8338 22.7785 66.7446 24.9108 67.9723 24.5231C69.3292 24.0708 69.6523 22.9077 68.4246 22.9077C67.9723 22.9077 65.9046 21.8739 63.8369 20.6462C61.7692 19.4185 60.0246 18.3846 59.9599 18.3846C59.8953 18.3846 59.3784 18.7077 58.8615 19.0308Z" fill="#141414"/>
<path d="M125.803 79.0585C124.252 80.8031 124.64 85.1323 126.32 85.52C127.935 85.7785 129.292 83.9693 129.292 81.3846C129.292 79.5754 128.323 77.8308 127.354 77.8308C127.095 77.8308 126.385 78.4123 125.803 79.0585Z" fill="#141414"/>
<path d="M144.154 80.8677C141.957 83.7108 142.732 87.2 145.511 86.7477C147.32 86.4892 148.418 83.9692 147.837 81.5785C147.191 79.1877 145.705 78.8646 144.154 80.8677Z" fill="#141414"/>
<path d="M133.815 100.317C133.815 102.514 137.692 103.742 140.342 102.385C142.151 101.351 141.957 99.5416 140.148 100.123C139.308 100.382 138.209 100.575 137.692 100.575C137.175 100.575 136.077 100.382 135.302 100.123C134.397 99.8646 133.815 99.9292 133.815 100.317Z" fill="#141414"/>
<path d="M60.7999 113.434C33.8553 115.049 13.8246 122.609 10.0123 132.495C6.52302 141.735 14.7938 151.428 34.6307 161.378C40.7692 164.415 54.0153 169.843 57.2461 170.554C61.6399 171.588 56.9876 168.809 48.1353 165.126C26.7476 156.209 15.8923 148.908 12.2738 140.96C10.8523 137.729 10.723 135.985 11.9507 133.206C14.5999 126.938 24.0984 121.898 40.123 118.345C51.883 115.695 59.443 115.114 75.5969 115.502C88.7138 115.825 91.1692 116.018 99.5046 117.828C110.166 120.089 112.04 120.218 108.163 118.474C99.4399 114.468 79.2153 112.335 60.7999 113.434Z" fill="#141414"/>
<path d="M113.785 121.64C113.785 122.157 118.243 125.194 123.477 128.102C131.554 132.625 142.215 133.4 149.582 129.846C154.88 127.326 161.148 121.123 158.369 121.123C157.982 121.123 156.172 122.351 154.298 123.902C143.96 132.302 133.363 132.043 119.212 123.062C116.24 121.188 113.785 120.542 113.785 121.64Z" fill="#141414"/>
<path d="M101.766 125.775C102.606 127.326 104.286 131.332 105.449 134.692C107.258 140.055 107.517 141.735 107.582 147.745C107.646 154.4 107.711 154.658 108.938 154.335C110.812 153.754 111.006 153.431 111.911 150.071C112.815 146.905 112.428 144.449 110.102 137.277C108.809 133.465 102.218 123.062 101.055 123.062C100.409 123.062 100.538 123.772 101.766 125.775Z" fill="#141414"/>
<path d="M164.185 124.289C164.702 124.612 169.612 126.357 174.975 128.166C203.858 137.858 230.738 153.302 246.117 169.197C251.222 174.431 253.289 178.243 253.354 182.185C253.354 186.255 251.48 188.646 246.957 190.326C242.111 192.071 241.852 193.105 246.246 192.717C250.382 192.329 253.935 189.615 255.163 185.997C256.326 182.637 255.292 177.532 252.708 173.397C250.446 169.972 242.046 161.702 236.166 157.178C221.111 145.612 194.554 131.978 174.782 125.646C169.16 123.837 161.794 122.932 164.185 124.289Z" fill="#141414"/>
<path d="M111.846 126.938C111.846 127.326 112.428 128.748 113.138 130.169C114.883 133.658 117.403 142.64 117.985 147.486C118.566 152.526 119.6 153.366 119.6 148.714C119.6 144.255 117.015 133.982 114.818 129.652C113.268 126.551 111.846 125.323 111.846 126.938Z" fill="#141414"/>
<path d="M161.018 135.855C157.206 143.351 153.846 153.237 153.846 157.114C153.846 160.991 154.88 161.12 155.397 157.308C156.043 152.72 159.274 143.803 162.957 136.566C166.446 129.782 166.511 129.523 165.218 129.523C164.702 129.523 162.828 132.366 161.018 135.855Z" fill="#141414"/>
<path d="M152.683 133.012C151.649 134.628 149.711 138.763 148.354 142.252C143.766 154.206 143.895 153.948 141.246 154.465C139.954 154.658 135.043 154.723 130.455 154.594C123.154 154.335 122.185 154.4 123.218 155.175C126.126 157.308 136.271 159.052 141.311 158.277C145.252 157.695 148.871 154.465 150.551 149.877C152.166 145.548 154.621 136.178 154.621 134.24C154.621 133.4 155.074 132.431 155.526 132.043C156.689 131.074 156.689 130.169 155.461 130.169C154.88 130.169 153.652 131.462 152.683 133.012Z" fill="#141414"/>
<path d="M72.8184 150.523C69.8461 151.557 66.2923 154.788 64.6769 158.018C62.9969 161.185 61.8984 167.905 62.4153 171.652C62.8676 174.948 64.0307 176.563 64.0307 173.914C64.0307 172.686 64.5476 172.234 66.5507 171.588C69.2646 170.812 72.8184 167.194 73.4646 164.609C73.7876 163.382 74.1753 163.188 75.5969 163.511C78.5692 164.222 81.6707 165.708 83.9969 167.517C85.2892 168.486 87.68 169.714 89.4246 170.295L92.5261 171.329L88.3907 171.652C86.1938 171.846 83.4153 172.492 82.2523 173.074C80.2492 174.108 80.1846 174.237 80.2492 178.178C80.3138 183.218 81.5415 188.452 82.7046 188.84C83.4153 189.098 83.5446 188.646 83.1569 186.643C82.8984 185.222 82.5753 182.185 82.3169 179.794L81.9292 175.4L84.1261 174.495C87.3569 173.138 96.6615 172.428 97.3076 173.526C97.6307 173.978 97.76 175.982 97.6953 177.985C97.5015 183.477 100.021 185.545 102.671 182.185C103.446 181.215 104.157 180.828 104.415 181.215C105.126 182.314 107.905 181.926 108.745 180.569C109.197 179.858 110.037 179.277 110.554 179.277C113.268 179.277 113.978 174.56 112.169 168.486C110.36 162.348 109.132 161.249 101.185 158.6C97.3076 157.308 93.56 156.015 92.9784 155.757C92.1384 155.369 91.8153 155.498 91.8153 156.274C91.8153 157.566 94.0769 158.729 100.991 160.797C104.932 162.025 107 163.058 107.905 164.157C109.649 166.418 111.329 171.652 111.071 174.237L110.877 176.369L109.649 173.138C107.969 168.745 106.225 166.354 104.674 166.354C103.058 166.354 103.123 166.935 105.126 169.003C106.418 170.36 106.871 171.652 107.129 174.625C107.581 179.148 106.354 180.763 105.708 176.563C105.126 173.074 102.929 169.068 101.314 168.551C99.44 167.969 99.3753 168.615 101.185 171.2C103.058 174.043 103.188 175.852 101.701 179.148L100.538 181.538L100.345 177.532C100.151 173.978 99.8923 173.203 98.0184 171.2C96.3384 169.391 95.3692 168.938 93.4953 168.938C90.5876 168.938 87.68 167.775 84.0615 165.126C79.9907 162.218 75.08 160.926 69.7169 161.443C67.3261 161.637 65.323 161.702 65.323 161.508C65.323 160.28 68.1661 155.886 70.1046 154.206C72.883 151.815 75.5969 151.234 81.8646 151.686C86.9692 152.074 88.1969 151.363 84.2553 150.265C80.8953 149.295 75.8553 149.425 72.8184 150.523Z" fill="#141414"/>
<path d="M191.84 167.905C186.412 170.295 181.308 173.655 179.886 175.852C179.046 177.08 179.111 177.403 180.274 178.566C181.049 179.342 181.631 180.182 181.631 180.569C181.631 181.603 184.28 182.637 185.96 182.314C186.865 182.185 188.351 182.443 189.32 182.895C190.871 183.671 191.582 183.671 194.618 182.766C196.557 182.249 199.788 181.474 201.855 181.086C206.572 180.182 206.443 178.889 201.662 179.212C199.788 179.342 196.945 179.988 195.394 180.634C193.778 181.28 191.969 181.862 191.258 181.862C186.929 181.862 194.748 177.855 200.046 177.403C204.892 176.951 205.086 175.788 200.369 175.529C197.332 175.335 196.169 175.658 192.292 177.597C189.837 178.889 186.735 180.117 185.508 180.375C183.246 180.763 183.246 180.763 184.409 179.471C186.348 177.274 193.003 174.108 196.492 173.655C198.237 173.462 200.111 172.815 200.498 172.298C201.274 171.458 200.886 171.329 197.462 171.717C194.812 171.911 191.775 172.945 187.898 174.754C184.732 176.24 181.954 177.274 181.76 177.015C180.468 175.723 195.265 167.646 198.883 167.646C199.982 167.646 203.471 168.68 206.702 169.908C213.163 172.428 220.852 173.914 221.886 172.88C222.726 172.04 222.08 171.782 216.523 170.877C214.197 170.425 209.803 169.132 206.702 167.905C203.6 166.677 200.111 165.708 198.948 165.708C197.785 165.708 194.554 166.677 191.84 167.905Z" fill="#141414"/>
<path d="M117.338 167.452C114.108 168.228 114.948 169.003 118.825 168.809C123.865 168.615 124.446 169.197 125.092 174.948C125.286 177.145 125.609 179.729 125.803 180.634C126.191 182.702 125.157 183.218 116.498 185.351C107.969 187.483 100.28 188.84 93.7538 189.357C90.7169 189.615 87.5507 190.132 86.6461 190.455C85.16 191.102 85.2246 191.166 88.1323 191.554C91.363 191.942 94.9169 191.618 109.132 189.615C120.569 187.935 124.317 186.772 126.449 184.317C127.935 182.443 128.065 181.926 127.677 178.695C126.385 168.098 124.317 165.772 117.338 167.452Z" fill="#141414"/>
<path d="M227.314 169.391C226.345 170.36 226.991 170.877 229.058 170.877C231.449 170.877 233.065 172.105 234.034 174.56C235.132 177.468 234.809 177.791 230.286 178.243C227.895 178.502 224.6 179.277 222.985 179.988C221.305 180.763 217.945 181.409 214.908 181.668C211.095 181.926 209.157 182.378 207.477 183.477C206.249 184.252 204.505 185.286 203.6 185.738C201.985 186.578 201.985 186.578 203.794 184.64C205.732 182.508 205.991 181.862 204.634 181.862C203.212 181.862 199.723 185.48 199.723 186.966C199.723 189.163 202.76 188.646 207.154 185.738C210.708 183.412 211.418 183.218 215.425 183.154C218.462 183.154 220.852 182.702 223.049 181.797C224.794 181.022 226.345 180.505 226.474 180.634C226.538 180.763 227.314 182.314 228.154 183.994C229.058 185.932 230.545 187.742 232.095 188.775C233.517 189.68 234.615 190.843 234.615 191.295C234.615 191.812 235.003 192.2 235.52 192.2C236.748 192.2 237.458 180.634 236.554 176.175C235.585 171.782 233 168.938 229.963 168.938C228.735 168.938 227.508 169.132 227.314 169.391Z" fill="#141414"/>
<path d="M14.9876 189.163C14.4061 189.874 15.5692 190.003 21.2553 189.745C25.2615 189.615 32.0461 189.938 37.3446 190.52C48.4584 191.748 49.363 191.812 49.04 190.714C48.3938 188.905 16.4738 187.418 14.9876 189.163Z" fill="#141414"/>
<path d="M49.04 197.369L49.363 202.538H44.4523C41.7384 202.538 39.4123 202.797 39.2184 203.055C38.8953 203.637 83.48 204.606 84.0615 204.089C85.16 202.991 80.6369 202.538 67.843 202.538H53.24L52.8523 198.985C52.5938 196.465 52.0123 194.914 50.9784 193.815C50.1384 192.911 49.2984 192.2 49.1046 192.2C48.9107 192.2 48.8461 194.526 49.04 197.369Z" fill="#141414"/>
<path d="M11.6923 197.951V202.991L9.3015 203.443C7.94458 203.637 5.87689 203.831 4.77843 203.831C3.61535 203.831 2.64612 204.089 2.64612 204.348C2.64612 204.929 32.563 204.671 34.3077 204.089C35.1477 203.831 35.1477 203.702 34.3077 203.185C33.7907 202.797 28.9446 202.538 23.5815 202.538H13.8246L13.3723 200.083C13.1784 198.791 12.9846 196.594 12.9846 195.237C12.9846 193.945 12.7261 192.846 12.3384 192.846C11.9507 192.846 11.6923 194.978 11.6923 197.951Z" fill="#141414"/>
<path d="M173.554 197.369C161.988 197.757 158.175 198.08 156.431 198.92L154.169 199.954L158.369 199.566C167.48 198.791 203.083 198.209 226.151 198.468C246.698 198.791 250.317 198.662 249.606 197.951C248.895 197.24 243.209 197.046 218.591 196.982C201.985 196.917 181.76 197.111 173.554 197.369Z" fill="#141414"/>
<path d="M190.418 201.828C190.16 202.151 190.289 204.412 190.677 206.868C191 209.258 191.323 213.782 191.323 216.818V222.375L176.655 222.828C168.514 223.022 159.985 223.409 157.658 223.603C154.169 223.991 153.329 223.862 153.006 223.022C152.812 222.44 152.425 217.594 152.166 212.231C151.908 206.868 151.455 202.345 151.197 202.151C150.874 201.957 150.615 202.28 150.615 202.862C150.615 203.443 150.034 204.412 149.323 204.994C148.225 205.898 147.902 207.32 147.32 213.846C146.932 218.046 146.803 222.052 146.932 222.634C147.191 223.538 146.092 223.732 136.723 223.991C127.548 224.314 122.766 225.025 124.511 225.929C125.803 226.575 187.188 224.378 192.486 223.538C194.425 223.151 194.554 222.957 194.554 220.695C194.554 215.462 193.132 204.865 192.228 203.055C191.194 201.117 190.935 200.923 190.418 201.828Z" fill="#141414"/>
<path d="M251.932 211.003C252.061 217.594 251.932 220.631 251.48 220.372C251.092 220.114 245.923 220.243 239.978 220.631C234.034 221.018 223.049 221.342 215.554 221.342C202.437 221.406 196.686 221.988 197.461 223.215C197.849 223.862 243.338 223.474 248.701 222.828C250.188 222.634 251.415 222.246 251.415 221.858C251.415 221.535 251.868 221.277 252.385 221.277C253.225 221.277 253.354 219.855 253.354 212.295C253.354 203.702 253.095 201.246 252.126 201.246C251.932 201.246 251.803 205.64 251.932 211.003Z" fill="#141414"/>
<path d="M227.314 208.354C221.305 212.425 219.366 213.2 221.434 210.745C222.468 209.517 222.403 209.517 220.852 210.938C219.818 211.778 219.366 212.618 219.754 212.748C221.175 213.265 223.631 212.166 228.348 208.935C231.062 207.126 233.582 205.769 234.034 205.898C234.422 206.028 232.612 207.578 229.898 209.323C225.892 211.908 223.631 214.234 223.631 215.785C223.631 215.978 224.471 216.108 225.505 216.108C227.637 216.108 241.723 209.517 240.495 209.129C240.043 209 236.942 210.228 233.517 211.843C230.157 213.458 226.926 214.815 226.409 214.815C224.729 214.815 227.185 212.554 232.225 209.258C236.812 206.286 237.782 204.477 234.745 204.477C233.646 204.477 230.868 205.898 227.314 208.354Z" fill="#141414"/>
<path d="M0.772278 214.298C0.901509 221.729 1.35382 224.895 2.32305 224.443C2.71074 224.314 2.90459 223.732 2.83997 223.215C2.77535 222.698 2.51689 218.951 2.25843 214.945C1.99997 211.003 1.54766 207.708 1.2892 207.708C0.966124 207.708 0.772278 210.68 0.772278 214.298Z" fill="#141414"/>
<path d="M37.0861 216.237C37.2154 223.603 37.0215 225.218 36.2461 225.542C35.7292 225.8 28.2984 226.188 19.7692 226.446C11.24 226.705 4.19689 226.963 4.06766 227.028C3.93843 227.028 4.00305 227.351 4.19689 227.674C4.77843 228.514 23.1938 229.095 31.723 228.578L39.1538 228.062L38.96 219.726C38.8307 214.363 38.4431 210.68 37.8615 209.388C37.0215 207.578 36.9569 208.225 37.0861 216.237Z" fill="#141414"/>
<path d="M85.8061 214.622C85.9354 218.111 86.1292 222.375 86.2584 224.12L86.4523 227.286L64.3538 226.898C52.2061 226.705 41.8677 226.769 41.4154 227.092C39.9292 227.997 44 228.32 63.7077 228.643C81.2184 228.966 93.9477 228.514 95.6923 227.415C97.1138 226.575 94.9169 225.865 92.0738 226.252C89.4892 226.575 89.36 226.511 89.6831 224.96C90.5231 220.695 87.8092 208.354 86.0646 208.354C85.8061 208.354 85.6769 211.197 85.8061 214.622Z" fill="#141414"/>
<path d="M216.329 234.717C216.135 238.723 215.812 242.212 215.554 242.6C215.36 242.923 212.646 243.246 209.545 243.246H203.988L206.185 240.985C208.511 238.594 207.735 237.883 204.892 239.822L203.277 240.92L204.44 239.24C205.797 237.043 205.797 236.785 204.375 236.785C203.665 236.785 202.695 237.689 201.985 238.982C200.886 240.985 200.692 241.049 199.012 240.468C196.492 239.498 195.975 240.338 197.785 242.277L199.271 243.892H195.135C192.874 243.892 186.089 244.215 180.015 244.668C174.006 245.055 168.255 245.185 167.286 244.991C165.218 244.474 165.089 243.892 164.508 236.009C164.249 232.714 163.668 229.935 163.151 229.225C162.311 228.191 162.246 229.031 162.634 236.268L163.086 244.538H146.092C136.723 244.538 129.228 244.732 129.422 244.926C129.68 245.12 133.557 245.508 138.145 245.766L146.415 246.283L136.917 246.412C130.52 246.477 127.354 246.735 127.354 247.188C127.354 248.157 161.083 247.705 162.311 246.735C162.957 246.218 164.249 246.154 166.446 246.477C172.455 247.511 215.877 246.735 217.686 245.572C218.009 245.378 225.44 245.12 234.357 244.991C243.209 244.862 250.963 244.474 251.545 244.215C253.031 243.634 253.548 239.498 252.902 234.265C252.191 228.514 250.769 228.191 250.769 233.748C250.769 236.009 250.446 238.788 250.058 239.951C249.412 241.695 249.025 241.954 247.022 242.018C245.665 242.018 239.138 242.406 232.418 242.794C218.203 243.698 219.56 244.409 218.785 235.363C218.591 232.326 218.009 229.289 217.557 228.643C216.846 227.738 216.652 228.772 216.329 234.717Z" fill="#141414"/>
<path d="M122.249 231.938C121.022 233.166 120.569 234.329 120.375 237.237C120.246 239.305 120.375 242.018 120.698 243.246C121.215 245.249 121.538 245.508 123.542 245.508C125.351 245.508 125.738 245.314 125.609 244.215C125.48 243.505 125.222 240.08 125.028 236.591C124.769 233.166 124.382 230.323 124.188 230.388C123.994 230.388 123.089 231.098 122.249 231.938Z" fill="#141414"/>
<path d="M2.45227 237.56C2.83996 244.474 3.29227 246.994 4.39073 247.898C5.23073 248.545 8.84919 248.738 20.9969 248.609C100.603 248.092 94.7877 248.222 96.3384 246.8C97.6953 245.572 97.76 245.12 97.4369 240.145C97.0492 234.588 96.6615 233.295 95.6277 233.877C95.3046 234.135 95.24 236.138 95.4338 238.658C95.8215 242.923 95.8215 243.052 94.2707 243.44C89.7477 244.603 60.8646 246.542 45.4861 246.735L38.2492 246.8L38.5723 242.277C38.8953 238.723 38.7015 237.495 37.9261 236.462C36.9569 235.234 36.9569 235.298 36.8923 237.818C36.8923 239.305 36.6984 241.825 36.5046 243.505L36.0523 246.477H31.6584C27.8461 246.477 27.2 246.283 27.2 245.314C27.2 243.634 24.7446 240.015 23.6461 240.015C22.2892 240.015 22.4184 240.855 23.9692 242.277C25.7784 243.957 25.5846 244.797 23.6461 243.505C21.7077 242.212 20.803 242.729 22.2892 244.215C22.8707 244.797 23.323 245.702 23.323 246.218C23.323 246.929 21.8369 247.123 15.3753 247.123C6.84611 247.123 5.87688 246.8 5.87688 243.892C5.87688 242.988 5.48919 241.695 4.97227 240.985C4.51996 240.274 3.93842 238.335 3.67996 236.591C3.03381 232.197 2.19381 232.843 2.45227 237.56ZM95.0461 245.185C95.0461 245.508 94.0769 245.766 92.9784 245.766L90.8461 245.702L92.7846 245.185C93.883 244.926 94.7877 244.668 94.9169 244.603C94.9815 244.603 95.0461 244.797 95.0461 245.185ZM90.0707 246.283C89.6184 246.412 88.843 246.412 88.4553 246.283C88.003 246.089 88.3261 245.96 89.2307 245.96C90.1353 245.96 90.4584 246.089 90.0707 246.283Z" fill="#141414"/>
<path d="M69.2 238.077C66.163 239.822 62.6738 241.437 61.4461 241.695L59.1846 242.083L60.8 240.662C62.2861 239.305 62.2861 239.305 60.9292 240.08C58.9907 241.243 59.0553 242.212 61.0584 242.471C62.48 242.665 69.9753 239.305 75.1446 236.138C76.76 235.169 76.9538 234.846 75.9846 234.911C75.2738 234.911 72.2369 236.332 69.2 238.077Z" fill="#141414"/>
<path d="M65.84 235.945C67.3261 236.203 67.3261 236.268 66.163 237.172C65.0646 238.077 65.1292 238.077 66.4861 237.431C68.4246 236.462 68.2953 235.492 66.163 235.557C64.5477 235.686 64.483 235.686 65.84 235.945Z" fill="#141414"/>
<path d="M59.1846 238.077C58.9908 238.465 59.2492 238.529 59.7661 238.335C60.9292 237.883 61.1231 237.431 60.2184 237.431C59.8308 237.431 59.3784 237.689 59.1846 238.077Z" fill="#141414"/>
</svg>
