<svg width="19" height="20" viewBox="0 0 19 20" fill="none" xmlns="http://www.w3.org/2000/svg">
<path fill-rule="evenodd" clip-rule="evenodd" d="M6.35934 1.66667H12.8005C12.8674 1.66667 12.9339 1.67094 13 1.6795C15.6219 1.86285 17.6578 4.03872 17.6667 6.667V14.1675C17.657 16.9349 15.4081 19.1718 12.6407 19.1667H6.35934C3.59144 19.1718 1.34235 16.9342 1.33334 14.1663V6.667C1.34235 3.8991 3.59144 1.6615 6.35934 1.66667Z" stroke="#141414" stroke-width="1.5" stroke-linecap="round" stroke-linejoin="round"/>
<path d="M17.6667 7.41697C18.0809 7.41697 18.4167 7.08119 18.4167 6.66697C18.4167 6.25276 18.0809 5.91697 17.6667 5.91697V7.41697ZM13 6.66697H12.25C12.25 7.08119 12.5858 7.41697 13 7.41697V6.66697ZM13.75 1.67947C13.75 1.26526 13.4142 0.929474 13 0.929474C12.5858 0.929474 12.25 1.26526 12.25 1.67947H13.75ZM8.33334 15.25C8.74756 15.25 9.08334 14.9142 9.08334 14.5C9.08334 14.0858 8.74756 13.75 8.33334 13.75V15.25ZM4.83334 13.75C4.41913 13.75 4.08334 14.0858 4.08334 14.5C4.08334 14.9142 4.41913 15.25 4.83334 15.25V13.75ZM13 11.75C13.4142 11.75 13.75 11.4142 13.75 11C13.75 10.5858 13.4142 10.25 13 10.25V11.75ZM4.83334 10.25C4.41913 10.25 4.08334 10.5858 4.08334 11C4.08334 11.4142 4.41913 11.75 4.83334 11.75V10.25ZM17.6667 5.91697H13V7.41697H17.6667V5.91697ZM13.75 6.66697V1.67947H12.25V6.66697H13.75ZM8.33334 13.75H4.83334V15.25H8.33334V13.75ZM13 10.25H4.83334V11.75H13V10.25Z" fill="#141414"/>
</svg>
