<svg width="22" height="21" viewBox="0 0 22 21" fill="none" xmlns="http://www.w3.org/2000/svg">
<path d="M11 15.5C12.3833 15.5 13.5627 15.0167 14.538 14.05C15.5133 13.0833 16.0007 11.9 16 10.5C16 10.3667 15.9957 10.2333 15.987 10.1C15.9783 9.96667 15.9577 9.83333 15.925 9.7C15.7417 10.4833 15.3333 11.1293 14.7 11.638C14.0667 12.1467 13.325 12.4007 12.475 12.4C11.475 12.4 10.6333 12.0583 9.95 11.375C9.26667 10.6917 8.925 9.85 8.925 8.85C8.925 8.08333 9.14167 7.39567 9.575 6.787C10.0083 6.17833 10.575 5.74933 11.275 5.5H11C9.6 5.5 8.41667 5.98767 7.45 6.963C6.48333 7.93833 6 9.11733 6 10.5C6 11.9 6.48333 13.0833 7.45 14.05C8.41667 15.0167 9.6 15.5 11 15.5ZM12.025 10L13.5 8.925L14.95 10L14.375 8.3L15.85 7.225L14.05 7.25L13.5 5.5L12.95 7.25L11.125 7.225L12.6 8.3L12.025 10ZM7.65 18.5H5C4.45 18.5 3.979 18.304 3.587 17.912C3.195 17.52 2.99933 17.0493 3 16.5V13.85L1.1 11.925C0.7 11.5417 0.5 11.0667 0.5 10.5C0.5 9.93333 0.7 9.45833 1.1 9.075L3 7.15V4.5C3 3.95 3.196 3.479 3.588 3.087C3.98 2.695 4.45067 2.49933 5 2.5H7.65L9.575 0.6C9.95833 0.2 10.4333 0 11 0C11.5667 0 12.0417 0.2 12.425 0.6L14.35 2.5H17C17.55 2.5 18.021 2.696 18.413 3.088C18.805 3.48 19.0007 3.95067 19 4.5V7.15L20.9 9.075C21.3 9.45833 21.5 9.93333 21.5 10.5C21.5 11.0667 21.3 11.5417 20.9 11.925L19 13.85V16.5C19 17.05 18.804 17.521 18.412 17.913C18.02 18.305 17.5493 18.5007 17 18.5H14.35L12.425 20.4C12.0417 20.8 11.5667 21 11 21C10.4333 21 9.95833 20.8 9.575 20.4L7.65 18.5Z" fill="#141414"/>
</svg>
